<svg width="789" height="680" viewBox="0 0 789 680" fill="none" xmlns="http://www.w3.org/2000/svg">
<g clip-path="url(#clip0_1_355)" filter="url(#filter0_f_1_355)">
<path d="M144.357 59.999V176.999L180.16 153.18V76.2523L144.357 59.999ZM127.704 151.444L98.876 161.96V70.1683L127.704 77.2955V151.444ZM60.1601 148.748L82.2235 143.878V85.2905L60.2652 82.3363L60.1601 148.748Z" fill="#FFB413"/>
</g>
<g filter="url(#filter1_b_1_355)">
<rect x="17.1601" y="81.999" width="317" height="229" rx="15" fill="url(#paint0_linear_1_355)"/>
<rect x="17.6601" y="82.499" width="316" height="228" rx="14.5" stroke="url(#paint1_linear_1_355)"/>
</g>
<g clip-path="url(#clip1_1_355)" filter="url(#filter2_f_1_355)">
<path d="M589.542 184.299V301.299L622.66 277.48V200.553L589.542 184.299ZM574.138 275.745L547.472 286.26V194.469L574.138 201.596V275.745ZM511.66 273.049L532.069 268.179V209.591L511.757 206.637L511.66 273.049Z" fill="#FF5A13"/>
</g>
<g clip-path="url(#clip2_1_355)" filter="url(#filter3_f_1_355)">
<path d="M256.816 334.999V431.999L285.16 412.251V348.474L256.816 334.999ZM243.633 410.813L220.81 419.53V343.43L243.633 349.339V410.813ZM190.16 408.578L207.627 404.54V355.967L190.243 353.518L190.16 408.578Z" fill="#2FB8EB"/>
</g>
<g clip-path="url(#clip3_1_355)" filter="url(#filter4_f_1_355)">
<path d="M696.896 449.999V546.999L721.66 527.251V463.474L696.896 449.999ZM685.378 525.813L665.439 534.53V458.43L685.378 464.339V525.813ZM638.66 523.578L653.921 519.54V470.967L638.733 468.518L638.66 523.578Z" fill="#00E3A5"/>
</g>
<g filter="url(#filter5_b_1_355)">
<rect x="130.16" y="337.999" width="317" height="229" rx="15" fill="url(#paint2_linear_1_355)"/>
<rect x="130.66" y="338.499" width="316" height="228" rx="14.5" stroke="url(#paint3_linear_1_355)"/>
</g>
<g filter="url(#filter6_b_1_355)">
<rect x="358.66" y="197.299" width="318" height="229" rx="15" fill="url(#paint4_linear_1_355)"/>
<rect x="359.16" y="197.799" width="317" height="228" rx="14.5" stroke="url(#paint5_linear_1_355)"/>
</g>
<g filter="url(#filter7_b_1_355)">
<rect x="470.66" y="450.999" width="318" height="229" rx="15" fill="url(#paint6_linear_1_355)"/>
<rect x="471.16" y="451.499" width="317" height="228" rx="14.5" stroke="url(#paint7_linear_1_355)"/>
</g>
<path d="M123.188 246.009V248.055H119.118V261.299H116.61V248.055H112.518V246.009H123.188ZM128.236 250.937C128.603 250.321 129.087 249.845 129.688 249.507C130.304 249.155 131.03 248.979 131.866 248.979V251.575H131.228C130.245 251.575 129.497 251.825 128.984 252.323C128.485 252.822 128.236 253.687 128.236 254.919V261.299H125.728V249.177H128.236V250.937ZM133.335 255.183C133.335 253.966 133.585 252.888 134.083 251.949C134.597 251.011 135.286 250.285 136.151 249.771C137.031 249.243 137.999 248.979 139.055 248.979C140.009 248.979 140.837 249.17 141.541 249.551C142.26 249.918 142.832 250.38 143.257 250.937V249.177H145.787V261.299H143.257V259.495C142.832 260.067 142.253 260.544 141.519 260.925C140.786 261.307 139.95 261.497 139.011 261.497C137.97 261.497 137.017 261.233 136.151 260.705C135.286 260.163 134.597 259.415 134.083 258.461C133.585 257.493 133.335 256.401 133.335 255.183ZM143.257 255.227C143.257 254.391 143.081 253.665 142.729 253.049C142.392 252.433 141.945 251.964 141.387 251.641C140.83 251.319 140.229 251.157 139.583 251.157C138.938 251.157 138.337 251.319 137.779 251.641C137.222 251.949 136.767 252.411 136.415 253.027C136.078 253.629 135.909 254.347 135.909 255.183C135.909 256.019 136.078 256.753 136.415 257.383C136.767 258.014 137.222 258.498 137.779 258.835C138.351 259.158 138.953 259.319 139.583 259.319C140.229 259.319 140.83 259.158 141.387 258.835C141.945 258.513 142.392 258.043 142.729 257.427C143.081 256.797 143.257 256.063 143.257 255.227ZM155.198 248.979C156.151 248.979 157.002 249.177 157.75 249.573C158.512 249.969 159.106 250.556 159.532 251.333C159.957 252.111 160.17 253.049 160.17 254.149V261.299H157.684V254.523C157.684 253.438 157.412 252.609 156.87 252.037C156.327 251.451 155.586 251.157 154.648 251.157C153.709 251.157 152.961 251.451 152.404 252.037C151.861 252.609 151.59 253.438 151.59 254.523V261.299H149.082V249.177H151.59V250.563C152 250.065 152.521 249.676 153.152 249.397C153.797 249.119 154.479 248.979 155.198 248.979ZM167.769 261.497C166.815 261.497 165.957 261.329 165.195 260.991C164.447 260.639 163.853 260.17 163.413 259.583C162.973 258.982 162.738 258.315 162.709 257.581H165.305C165.349 258.095 165.591 258.527 166.031 258.879C166.485 259.217 167.05 259.385 167.725 259.385C168.429 259.385 168.971 259.253 169.353 258.989C169.749 258.711 169.947 258.359 169.947 257.933C169.947 257.479 169.727 257.141 169.287 256.921C168.861 256.701 168.179 256.459 167.241 256.195C166.331 255.946 165.591 255.704 165.019 255.469C164.447 255.235 163.948 254.875 163.523 254.391C163.112 253.907 162.907 253.269 162.907 252.477C162.907 251.832 163.097 251.245 163.479 250.717C163.86 250.175 164.403 249.749 165.107 249.441C165.825 249.133 166.647 248.979 167.571 248.979C168.949 248.979 170.057 249.331 170.893 250.035C171.743 250.725 172.198 251.671 172.257 252.873H169.749C169.705 252.331 169.485 251.898 169.089 251.575C168.693 251.253 168.157 251.091 167.483 251.091C166.823 251.091 166.317 251.216 165.965 251.465C165.613 251.715 165.437 252.045 165.437 252.455C165.437 252.778 165.554 253.049 165.789 253.269C166.023 253.489 166.309 253.665 166.647 253.797C166.984 253.915 167.483 254.069 168.143 254.259C169.023 254.494 169.741 254.736 170.299 254.985C170.871 255.22 171.362 255.572 171.773 256.041C172.183 256.511 172.396 257.134 172.411 257.911C172.411 258.601 172.22 259.217 171.839 259.759C171.457 260.302 170.915 260.727 170.211 261.035C169.521 261.343 168.707 261.497 167.769 261.497ZM177.629 250.959C178.054 250.402 178.633 249.933 179.367 249.551C180.1 249.17 180.929 248.979 181.853 248.979C182.909 248.979 183.869 249.243 184.735 249.771C185.615 250.285 186.304 251.011 186.803 251.949C187.301 252.888 187.551 253.966 187.551 255.183C187.551 256.401 187.301 257.493 186.803 258.461C186.304 259.415 185.615 260.163 184.735 260.705C183.869 261.233 182.909 261.497 181.853 261.497C180.929 261.497 180.107 261.314 179.389 260.947C178.67 260.566 178.083 260.097 177.629 259.539V267.063H175.121V249.177H177.629V250.959ZM184.999 255.183C184.999 254.347 184.823 253.629 184.471 253.027C184.133 252.411 183.679 251.949 183.107 251.641C182.549 251.319 181.948 251.157 181.303 251.157C180.672 251.157 180.071 251.319 179.499 251.641C178.941 251.964 178.487 252.433 178.135 253.049C177.797 253.665 177.629 254.391 177.629 255.227C177.629 256.063 177.797 256.797 178.135 257.427C178.487 258.043 178.941 258.513 179.499 258.835C180.071 259.158 180.672 259.319 181.303 259.319C181.948 259.319 182.549 259.158 183.107 258.835C183.679 258.498 184.133 258.014 184.471 257.383C184.823 256.753 184.999 256.019 184.999 255.183ZM189.195 255.183C189.195 253.966 189.444 252.888 189.943 251.949C190.456 251.011 191.145 250.285 192.011 249.771C192.891 249.243 193.859 248.979 194.915 248.979C195.868 248.979 196.697 249.17 197.401 249.551C198.119 249.918 198.691 250.38 199.117 250.937V249.177H201.647V261.299H199.117V259.495C198.691 260.067 198.112 260.544 197.379 260.925C196.645 261.307 195.809 261.497 194.871 261.497C193.829 261.497 192.876 261.233 192.011 260.705C191.145 260.163 190.456 259.415 189.943 258.461C189.444 257.493 189.195 256.401 189.195 255.183ZM199.117 255.227C199.117 254.391 198.941 253.665 198.589 253.049C198.251 252.433 197.804 251.964 197.247 251.641C196.689 251.319 196.088 251.157 195.443 251.157C194.797 251.157 194.196 251.319 193.639 251.641C193.081 251.949 192.627 252.411 192.275 253.027C191.937 253.629 191.769 254.347 191.769 255.183C191.769 256.019 191.937 256.753 192.275 257.383C192.627 258.014 193.081 258.498 193.639 258.835C194.211 259.158 194.812 259.319 195.443 259.319C196.088 259.319 196.689 259.158 197.247 258.835C197.804 258.513 198.251 258.043 198.589 257.427C198.941 256.797 199.117 256.063 199.117 255.227ZM207.449 250.937C207.816 250.321 208.3 249.845 208.901 249.507C209.517 249.155 210.243 248.979 211.079 248.979V251.575H210.441C209.458 251.575 208.71 251.825 208.197 252.323C207.698 252.822 207.449 253.687 207.449 254.919V261.299H204.941V249.177H207.449V250.937ZM224.494 254.941C224.494 255.396 224.465 255.807 224.406 256.173H215.144C215.218 257.141 215.577 257.919 216.222 258.505C216.868 259.092 217.66 259.385 218.598 259.385C219.948 259.385 220.901 258.821 221.458 257.691H224.164C223.798 258.806 223.13 259.723 222.162 260.441C221.209 261.145 220.021 261.497 218.598 261.497C217.44 261.497 216.398 261.241 215.474 260.727C214.565 260.199 213.846 259.466 213.318 258.527C212.805 257.574 212.548 256.474 212.548 255.227C212.548 253.981 212.798 252.888 213.296 251.949C213.81 250.996 214.521 250.263 215.43 249.749C216.354 249.236 217.41 248.979 218.598 248.979C219.742 248.979 220.762 249.229 221.656 249.727C222.551 250.226 223.248 250.93 223.746 251.839C224.245 252.734 224.494 253.768 224.494 254.941ZM221.876 254.149C221.862 253.225 221.532 252.485 220.886 251.927C220.241 251.37 219.442 251.091 218.488 251.091C217.623 251.091 216.882 251.37 216.266 251.927C215.65 252.47 215.284 253.211 215.166 254.149H221.876ZM233.078 248.979C234.032 248.979 234.882 249.177 235.63 249.573C236.393 249.969 236.987 250.556 237.412 251.333C237.838 252.111 238.05 253.049 238.05 254.149V261.299H235.564V254.523C235.564 253.438 235.293 252.609 234.75 252.037C234.208 251.451 233.467 251.157 232.528 251.157C231.59 251.157 230.842 251.451 230.284 252.037C229.742 252.609 229.47 253.438 229.47 254.523V261.299H226.962V249.177H229.47V250.563C229.881 250.065 230.402 249.676 231.032 249.397C231.678 249.119 232.36 248.979 233.078 248.979ZM244.176 251.223V257.933C244.176 258.388 244.278 258.718 244.484 258.923C244.704 259.114 245.07 259.209 245.584 259.209H247.124V261.299H245.144C244.014 261.299 243.149 261.035 242.548 260.507C241.946 259.979 241.646 259.121 241.646 257.933V251.223H240.216V249.177H241.646V246.163H244.176V249.177H247.124V251.223H244.176Z" fill="#BDF3FF"/>
<path d="M455.834 366.146C456.655 366.293 457.352 366.725 457.924 367.444C458.496 368.163 458.782 368.977 458.782 369.886C458.782 370.663 458.577 371.367 458.166 371.998C457.77 372.614 457.191 373.105 456.428 373.472C455.665 373.824 454.778 374 453.766 374H447.65V358.71H453.48C454.521 358.71 455.416 358.886 456.164 359.238C456.912 359.59 457.477 360.067 457.858 360.668C458.239 361.255 458.43 361.915 458.43 362.648C458.43 363.528 458.195 364.261 457.726 364.848C457.257 365.435 456.626 365.867 455.834 366.146ZM450.158 365.134H453.26C454.081 365.134 454.719 364.951 455.174 364.584C455.643 364.203 455.878 363.66 455.878 362.956C455.878 362.267 455.643 361.731 455.174 361.35C454.719 360.954 454.081 360.756 453.26 360.756H450.158V365.134ZM453.546 371.954C454.397 371.954 455.064 371.749 455.548 371.338C456.032 370.927 456.274 370.355 456.274 369.622C456.274 368.874 456.017 368.28 455.504 367.84C454.991 367.4 454.309 367.18 453.458 367.18H450.158V371.954H453.546ZM464.015 357.72V374H461.507V357.72H464.015ZM466.472 367.884C466.472 366.667 466.722 365.589 467.22 364.65C467.734 363.711 468.423 362.985 469.288 362.472C470.168 361.944 471.136 361.68 472.192 361.68C473.146 361.68 473.974 361.871 474.678 362.252C475.397 362.619 475.969 363.081 476.394 363.638V361.878H478.924V374H476.394V372.196C475.969 372.768 475.39 373.245 474.656 373.626C473.923 374.007 473.087 374.198 472.148 374.198C471.107 374.198 470.154 373.934 469.288 373.406C468.423 372.863 467.734 372.115 467.22 371.162C466.722 370.194 466.472 369.101 466.472 367.884ZM476.394 367.928C476.394 367.092 476.218 366.366 475.866 365.75C475.529 365.134 475.082 364.665 474.524 364.342C473.967 364.019 473.366 363.858 472.72 363.858C472.075 363.858 471.474 364.019 470.916 364.342C470.359 364.65 469.904 365.112 469.552 365.728C469.215 366.329 469.046 367.048 469.046 367.884C469.046 368.72 469.215 369.453 469.552 370.084C469.904 370.715 470.359 371.199 470.916 371.536C471.488 371.859 472.09 372.02 472.72 372.02C473.366 372.02 473.967 371.859 474.524 371.536C475.082 371.213 475.529 370.744 475.866 370.128C476.218 369.497 476.394 368.764 476.394 367.928ZM484.44 371.954H489.94V374H481.536V371.954L487.058 363.924H481.536V361.878H489.94V363.924L484.44 371.954ZM493.85 360.272C493.395 360.272 493.014 360.118 492.706 359.81C492.398 359.502 492.244 359.121 492.244 358.666C492.244 358.211 492.398 357.83 492.706 357.522C493.014 357.214 493.395 357.06 493.85 357.06C494.29 357.06 494.664 357.214 494.972 357.522C495.28 357.83 495.434 358.211 495.434 358.666C495.434 359.121 495.28 359.502 494.972 359.81C494.664 360.118 494.29 360.272 493.85 360.272ZM495.082 361.878V374H492.574V361.878H495.082ZM504.491 361.68C505.444 361.68 506.295 361.878 507.043 362.274C507.805 362.67 508.399 363.257 508.825 364.034C509.25 364.811 509.463 365.75 509.463 366.85V374H506.977V367.224C506.977 366.139 506.705 365.31 506.163 364.738C505.62 364.151 504.879 363.858 503.941 363.858C503.002 363.858 502.254 364.151 501.697 364.738C501.154 365.31 500.883 366.139 500.883 367.224V374H498.375V361.878H500.883V363.264C501.293 362.765 501.814 362.377 502.445 362.098C503.09 361.819 503.772 361.68 504.491 361.68ZM517.546 361.68C518.484 361.68 519.313 361.871 520.032 362.252C520.765 362.619 521.337 363.081 521.748 363.638V361.878H524.278V374.198C524.278 375.313 524.043 376.303 523.574 377.168C523.104 378.048 522.422 378.737 521.528 379.236C520.648 379.735 519.592 379.984 518.36 379.984C516.717 379.984 515.353 379.595 514.268 378.818C513.182 378.055 512.566 377.014 512.42 375.694H514.906C515.096 376.325 515.5 376.831 516.116 377.212C516.746 377.608 517.494 377.806 518.36 377.806C519.372 377.806 520.186 377.498 520.802 376.882C521.432 376.266 521.748 375.371 521.748 374.198V372.174C521.322 372.746 520.743 373.23 520.01 373.626C519.291 374.007 518.47 374.198 517.546 374.198C516.49 374.198 515.522 373.934 514.642 373.406C513.776 372.863 513.087 372.115 512.574 371.162C512.075 370.194 511.826 369.101 511.826 367.884C511.826 366.667 512.075 365.589 512.574 364.65C513.087 363.711 513.776 362.985 514.642 362.472C515.522 361.944 516.49 361.68 517.546 361.68ZM521.748 367.928C521.748 367.092 521.572 366.366 521.22 365.75C520.882 365.134 520.435 364.665 519.878 364.342C519.32 364.019 518.719 363.858 518.074 363.858C517.428 363.858 516.827 364.019 516.27 364.342C515.712 364.65 515.258 365.112 514.906 365.728C514.568 366.329 514.4 367.048 514.4 367.884C514.4 368.72 514.568 369.453 514.906 370.084C515.258 370.715 515.712 371.199 516.27 371.536C516.842 371.859 517.443 372.02 518.074 372.02C518.719 372.02 519.32 371.859 519.878 371.536C520.435 371.213 520.882 370.744 521.22 370.128C521.572 369.497 521.748 368.764 521.748 367.928ZM542.285 358.71V360.756H535.795V365.266H540.855V367.312H535.795V374H533.287V358.71H542.285ZM543.773 367.884C543.773 366.667 544.022 365.589 544.521 364.65C545.034 363.711 545.724 362.985 546.589 362.472C547.469 361.944 548.437 361.68 549.493 361.68C550.446 361.68 551.275 361.871 551.979 362.252C552.698 362.619 553.27 363.081 553.695 363.638V361.878H556.225V374H553.695V372.196C553.27 372.768 552.69 373.245 551.957 373.626C551.224 374.007 550.388 374.198 549.449 374.198C548.408 374.198 547.454 373.934 546.589 373.406C545.724 372.863 545.034 372.115 544.521 371.162C544.022 370.194 543.773 369.101 543.773 367.884ZM553.695 367.928C553.695 367.092 553.519 366.366 553.167 365.75C552.83 365.134 552.382 364.665 551.825 364.342C551.268 364.019 550.666 363.858 550.021 363.858C549.376 363.858 548.774 364.019 548.217 364.342C547.66 364.65 547.205 365.112 546.853 365.728C546.516 366.329 546.347 367.048 546.347 367.884C546.347 368.72 546.516 369.453 546.853 370.084C547.205 370.715 547.66 371.199 548.217 371.536C548.789 371.859 549.39 372.02 550.021 372.02C550.666 372.02 551.268 371.859 551.825 371.536C552.382 371.213 552.83 370.744 553.167 370.128C553.519 369.497 553.695 368.764 553.695 367.928ZM563.919 374.198C562.966 374.198 562.108 374.029 561.345 373.692C560.597 373.34 560.003 372.871 559.563 372.284C559.123 371.683 558.888 371.015 558.859 370.282H561.455C561.499 370.795 561.741 371.228 562.181 371.58C562.636 371.917 563.2 372.086 563.875 372.086C564.579 372.086 565.122 371.954 565.503 371.69C565.899 371.411 566.097 371.059 566.097 370.634C566.097 370.179 565.877 369.842 565.437 369.622C565.012 369.402 564.33 369.16 563.391 368.896C562.482 368.647 561.741 368.405 561.169 368.17C560.597 367.935 560.098 367.576 559.673 367.092C559.262 366.608 559.057 365.97 559.057 365.178C559.057 364.533 559.248 363.946 559.629 363.418C560.01 362.875 560.553 362.45 561.257 362.142C561.976 361.834 562.797 361.68 563.721 361.68C565.1 361.68 566.207 362.032 567.043 362.736C567.894 363.425 568.348 364.371 568.407 365.574H565.899C565.855 365.031 565.635 364.599 565.239 364.276C564.843 363.953 564.308 363.792 563.633 363.792C562.973 363.792 562.467 363.917 562.115 364.166C561.763 364.415 561.587 364.745 561.587 365.156C561.587 365.479 561.704 365.75 561.939 365.97C562.174 366.19 562.46 366.366 562.797 366.498C563.134 366.615 563.633 366.769 564.293 366.96C565.173 367.195 565.892 367.437 566.449 367.686C567.021 367.921 567.512 368.273 567.923 368.742C568.334 369.211 568.546 369.835 568.561 370.612C568.561 371.301 568.37 371.917 567.989 372.46C567.608 373.003 567.065 373.428 566.361 373.736C565.672 374.044 564.858 374.198 563.919 374.198ZM574.197 363.924V370.634C574.197 371.089 574.3 371.419 574.505 371.624C574.725 371.815 575.092 371.91 575.605 371.91H577.145V374H575.165C574.036 374 573.17 373.736 572.569 373.208C571.968 372.68 571.667 371.822 571.667 370.634V363.924H570.237V361.878H571.667V358.864H574.197V361.878H577.145V363.924H574.197Z" fill="#BDF3FF"/>
<path d="M214.804 502.709C216.432 502.709 217.855 503.024 219.072 503.655C220.304 504.271 221.25 505.166 221.91 506.339C222.585 507.498 222.922 508.854 222.922 510.409C222.922 511.964 222.585 513.313 221.91 514.457C221.25 515.601 220.304 516.481 219.072 517.097C217.855 517.698 216.432 517.999 214.804 517.999H209.81V502.709H214.804ZM214.804 515.953C216.593 515.953 217.965 515.469 218.918 514.501C219.871 513.533 220.348 512.169 220.348 510.409C220.348 508.634 219.871 507.248 218.918 506.251C217.965 505.254 216.593 504.755 214.804 504.755H212.318V515.953H214.804ZM224.572 511.883C224.572 510.666 224.821 509.588 225.32 508.649C225.833 507.71 226.522 506.984 227.388 506.471C228.268 505.943 229.236 505.679 230.292 505.679C231.245 505.679 232.074 505.87 232.778 506.251C233.496 506.618 234.068 507.08 234.494 507.637V505.877H237.024V517.999H234.494V516.195C234.068 516.767 233.489 517.244 232.756 517.625C232.022 518.006 231.186 518.197 230.248 518.197C229.206 518.197 228.253 517.933 227.388 517.405C226.522 516.862 225.833 516.114 225.32 515.161C224.821 514.193 224.572 513.1 224.572 511.883ZM234.494 511.927C234.494 511.091 234.318 510.365 233.966 509.749C233.628 509.133 233.181 508.664 232.624 508.341C232.066 508.018 231.465 507.857 230.82 507.857C230.174 507.857 229.573 508.018 229.016 508.341C228.458 508.649 228.004 509.111 227.652 509.727C227.314 510.328 227.146 511.047 227.146 511.883C227.146 512.719 227.314 513.452 227.652 514.083C228.004 514.714 228.458 515.198 229.016 515.535C229.588 515.858 230.189 516.019 230.82 516.019C231.465 516.019 232.066 515.858 232.624 515.535C233.181 515.212 233.628 514.743 233.966 514.127C234.318 513.496 234.494 512.763 234.494 511.927ZM243.244 507.923V514.633C243.244 515.088 243.347 515.418 243.552 515.623C243.772 515.814 244.139 515.909 244.652 515.909H246.192V517.999H244.212C243.083 517.999 242.217 517.735 241.616 517.207C241.015 516.679 240.714 515.821 240.714 514.633V507.923H239.284V505.877H240.714V502.863H243.244V505.877H246.192V507.923H243.244ZM247.668 511.883C247.668 510.666 247.917 509.588 248.416 508.649C248.929 507.71 249.618 506.984 250.484 506.471C251.364 505.943 252.332 505.679 253.388 505.679C254.341 505.679 255.17 505.87 255.874 506.251C256.592 506.618 257.164 507.08 257.59 507.637V505.877H260.12V517.999H257.59V516.195C257.164 516.767 256.585 517.244 255.852 517.625C255.118 518.006 254.282 518.197 253.344 518.197C252.302 518.197 251.349 517.933 250.484 517.405C249.618 516.862 248.929 516.114 248.416 515.161C247.917 514.193 247.668 513.1 247.668 511.883ZM257.59 511.927C257.59 511.091 257.414 510.365 257.062 509.749C256.724 509.133 256.277 508.664 255.72 508.341C255.162 508.018 254.561 507.857 253.916 507.857C253.27 507.857 252.669 508.018 252.112 508.341C251.554 508.649 251.1 509.111 250.748 509.727C250.41 510.328 250.242 511.047 250.242 511.883C250.242 512.719 250.41 513.452 250.748 514.083C251.1 514.714 251.554 515.198 252.112 515.535C252.684 515.858 253.285 516.019 253.916 516.019C254.561 516.019 255.162 515.858 255.72 515.535C256.277 515.212 256.724 514.743 257.062 514.127C257.414 513.496 257.59 512.763 257.59 511.927ZM279.821 507.263C279.821 508.04 279.637 508.774 279.271 509.463C278.904 510.152 278.317 510.717 277.511 511.157C276.704 511.582 275.67 511.795 274.409 511.795H271.637V517.999H269.129V502.709H274.409C275.582 502.709 276.572 502.914 277.379 503.325C278.2 503.721 278.809 504.264 279.205 504.953C279.615 505.642 279.821 506.412 279.821 507.263ZM274.409 509.749C275.362 509.749 276.073 509.536 276.543 509.111C277.012 508.671 277.247 508.055 277.247 507.263C277.247 505.591 276.301 504.755 274.409 504.755H271.637V509.749H274.409ZM284.721 507.637C285.087 507.021 285.571 506.544 286.173 506.207C286.789 505.855 287.515 505.679 288.351 505.679V508.275H287.713C286.73 508.275 285.982 508.524 285.469 509.023C284.97 509.522 284.721 510.387 284.721 511.619V517.999H282.213V505.877H284.721V507.637ZM295.914 518.197C294.77 518.197 293.736 517.94 292.812 517.427C291.888 516.899 291.162 516.166 290.634 515.227C290.106 514.274 289.842 513.174 289.842 511.927C289.842 510.695 290.113 509.602 290.656 508.649C291.199 507.696 291.939 506.962 292.878 506.449C293.817 505.936 294.865 505.679 296.024 505.679C297.183 505.679 298.231 505.936 299.17 506.449C300.109 506.962 300.849 507.696 301.392 508.649C301.935 509.602 302.206 510.695 302.206 511.927C302.206 513.159 301.927 514.252 301.37 515.205C300.813 516.158 300.05 516.899 299.082 517.427C298.129 517.94 297.073 518.197 295.914 518.197ZM295.914 516.019C296.559 516.019 297.161 515.865 297.718 515.557C298.29 515.249 298.752 514.787 299.104 514.171C299.456 513.555 299.632 512.807 299.632 511.927C299.632 511.047 299.463 510.306 299.126 509.705C298.789 509.089 298.341 508.627 297.784 508.319C297.227 508.011 296.625 507.857 295.98 507.857C295.335 507.857 294.733 508.011 294.176 508.319C293.633 508.627 293.201 509.089 292.878 509.705C292.555 510.306 292.394 511.047 292.394 511.927C292.394 513.232 292.724 514.244 293.384 514.963C294.059 515.667 294.902 516.019 295.914 516.019ZM307.611 507.923V514.633C307.611 515.088 307.714 515.418 307.919 515.623C308.139 515.814 308.506 515.909 309.019 515.909H310.559V517.999H308.579C307.45 517.999 306.584 517.735 305.983 517.207C305.382 516.679 305.081 515.821 305.081 514.633V507.923H303.651V505.877H305.081V502.863H307.611V505.877H310.559V507.923H307.611ZM323.981 511.641C323.981 512.096 323.951 512.506 323.893 512.873H314.631C314.704 513.841 315.063 514.618 315.709 515.205C316.354 515.792 317.146 516.085 318.085 516.085C319.434 516.085 320.387 515.52 320.945 514.391H323.651C323.284 515.506 322.617 516.422 321.649 517.141C320.695 517.845 319.507 518.197 318.085 518.197C316.926 518.197 315.885 517.94 314.961 517.427C314.051 516.899 313.333 516.166 312.805 515.227C312.291 514.274 312.035 513.174 312.035 511.927C312.035 510.68 312.284 509.588 312.783 508.649C313.296 507.696 314.007 506.962 314.917 506.449C315.841 505.936 316.897 505.679 318.085 505.679C319.229 505.679 320.248 505.928 321.143 506.427C322.037 506.926 322.734 507.63 323.233 508.539C323.731 509.434 323.981 510.468 323.981 511.641ZM321.363 510.849C321.348 509.925 321.018 509.184 320.373 508.627C319.727 508.07 318.928 507.791 317.975 507.791C317.109 507.791 316.369 508.07 315.753 508.627C315.137 509.17 314.77 509.91 314.653 510.849H321.363ZM325.613 511.927C325.613 510.68 325.862 509.588 326.361 508.649C326.874 507.696 327.578 506.962 328.473 506.449C329.367 505.936 330.394 505.679 331.553 505.679C333.019 505.679 334.229 506.031 335.183 506.735C336.151 507.424 336.803 508.414 337.141 509.705H334.435C334.215 509.104 333.863 508.634 333.379 508.297C332.895 507.96 332.286 507.791 331.553 507.791C330.526 507.791 329.705 508.158 329.089 508.891C328.487 509.61 328.187 510.622 328.187 511.927C328.187 513.232 328.487 514.252 329.089 514.985C329.705 515.718 330.526 516.085 331.553 516.085C333.005 516.085 333.965 515.447 334.435 514.171H337.141C336.789 515.403 336.129 516.386 335.161 517.119C334.193 517.838 332.99 518.197 331.553 518.197C330.394 518.197 329.367 517.94 328.473 517.427C327.578 516.899 326.874 516.166 326.361 515.227C325.862 514.274 325.613 513.174 325.613 511.927ZM342.566 507.923V514.633C342.566 515.088 342.669 515.418 342.874 515.623C343.094 515.814 343.461 515.909 343.974 515.909H345.514V517.999H343.534C342.405 517.999 341.54 517.735 340.938 517.207C340.337 516.679 340.036 515.821 340.036 514.633V507.923H338.606V505.877H340.036V502.863H342.566V505.877H345.514V507.923H342.566ZM349.102 504.271C348.647 504.271 348.266 504.117 347.958 503.809C347.65 503.501 347.496 503.12 347.496 502.665C347.496 502.21 347.65 501.829 347.958 501.521C348.266 501.213 348.647 501.059 349.102 501.059C349.542 501.059 349.916 501.213 350.224 501.521C350.532 501.829 350.686 502.21 350.686 502.665C350.686 503.12 350.532 503.501 350.224 503.809C349.916 504.117 349.542 504.271 349.102 504.271ZM350.334 505.877V517.999H347.826V505.877H350.334ZM358.885 518.197C357.741 518.197 356.707 517.94 355.783 517.427C354.859 516.899 354.133 516.166 353.605 515.227C353.077 514.274 352.813 513.174 352.813 511.927C352.813 510.695 353.084 509.602 353.627 508.649C354.169 507.696 354.91 506.962 355.849 506.449C356.787 505.936 357.836 505.679 358.995 505.679C360.153 505.679 361.202 505.936 362.141 506.449C363.079 506.962 363.82 507.696 364.363 508.649C364.905 509.602 365.177 510.695 365.177 511.927C365.177 513.159 364.898 514.252 364.341 515.205C363.783 516.158 363.021 516.899 362.053 517.427C361.099 517.94 360.043 518.197 358.885 518.197ZM358.885 516.019C359.53 516.019 360.131 515.865 360.689 515.557C361.261 515.249 361.723 514.787 362.075 514.171C362.427 513.555 362.603 512.807 362.603 511.927C362.603 511.047 362.434 510.306 362.097 509.705C361.759 509.089 361.312 508.627 360.755 508.319C360.197 508.011 359.596 507.857 358.951 507.857C358.305 507.857 357.704 508.011 357.147 508.319C356.604 508.627 356.171 509.089 355.849 509.705C355.526 510.306 355.365 511.047 355.365 511.927C355.365 513.232 355.695 514.244 356.355 514.963C357.029 515.667 357.873 516.019 358.885 516.019ZM373.772 505.679C374.725 505.679 375.576 505.877 376.324 506.273C377.087 506.669 377.681 507.256 378.106 508.033C378.531 508.81 378.744 509.749 378.744 510.849V517.999H376.258V511.223C376.258 510.138 375.987 509.309 375.444 508.737C374.901 508.15 374.161 507.857 373.222 507.857C372.283 507.857 371.535 508.15 370.978 508.737C370.435 509.309 370.164 510.138 370.164 511.223V517.999H367.656V505.877H370.164V507.263C370.575 506.764 371.095 506.376 371.726 506.097C372.371 505.818 373.053 505.679 373.772 505.679Z" fill="#BDF3FF"/>
<path d="M592.848 631.153C591.821 631.153 590.897 630.977 590.076 630.625C589.255 630.258 588.609 629.745 588.14 629.085C587.671 628.425 587.436 627.655 587.436 626.775H590.12C590.179 627.435 590.435 627.978 590.89 628.403C591.359 628.828 592.012 629.041 592.848 629.041C593.713 629.041 594.388 628.836 594.872 628.425C595.356 628 595.598 627.457 595.598 626.797C595.598 626.284 595.444 625.866 595.136 625.543C594.843 625.22 594.469 624.971 594.014 624.795C593.574 624.619 592.958 624.428 592.166 624.223C591.169 623.959 590.355 623.695 589.724 623.431C589.108 623.152 588.58 622.727 588.14 622.155C587.7 621.583 587.48 620.82 587.48 619.867C587.48 618.987 587.7 618.217 588.14 617.557C588.58 616.897 589.196 616.391 589.988 616.039C590.78 615.687 591.697 615.511 592.738 615.511C594.219 615.511 595.429 615.885 596.368 616.633C597.321 617.366 597.849 618.378 597.952 619.669H595.18C595.136 619.112 594.872 618.635 594.388 618.239C593.904 617.843 593.266 617.645 592.474 617.645C591.755 617.645 591.169 617.828 590.714 618.195C590.259 618.562 590.032 619.09 590.032 619.779C590.032 620.248 590.171 620.637 590.45 620.945C590.743 621.238 591.11 621.473 591.55 621.649C591.99 621.825 592.591 622.016 593.354 622.221C594.366 622.5 595.187 622.778 595.818 623.057C596.463 623.336 597.006 623.768 597.446 624.355C597.901 624.927 598.128 625.697 598.128 626.665C598.128 627.442 597.915 628.176 597.49 628.865C597.079 629.554 596.471 630.112 595.664 630.537C594.872 630.948 593.933 631.153 592.848 631.153ZM612.198 624.641C612.198 625.096 612.168 625.506 612.11 625.873H602.848C602.921 626.841 603.28 627.618 603.926 628.205C604.571 628.792 605.363 629.085 606.302 629.085C607.651 629.085 608.604 628.52 609.162 627.391H611.867C611.501 628.506 610.834 629.422 609.866 630.141C608.912 630.845 607.724 631.197 606.302 631.197C605.143 631.197 604.102 630.94 603.178 630.427C602.268 629.899 601.55 629.166 601.022 628.227C600.508 627.274 600.252 626.174 600.252 624.927C600.252 623.68 600.501 622.588 601 621.649C601.513 620.696 602.224 619.962 603.134 619.449C604.058 618.936 605.114 618.679 606.302 618.679C607.446 618.679 608.465 618.928 609.36 619.427C610.254 619.926 610.951 620.63 611.45 621.539C611.948 622.434 612.198 623.468 612.198 624.641ZM609.58 623.849C609.565 622.925 609.235 622.184 608.59 621.627C607.944 621.07 607.145 620.791 606.192 620.791C605.326 620.791 604.586 621.07 603.97 621.627C603.354 622.17 602.987 622.91 602.87 623.849H609.58ZM613.83 624.927C613.83 623.68 614.079 622.588 614.578 621.649C615.091 620.696 615.795 619.962 616.69 619.449C617.584 618.936 618.611 618.679 619.77 618.679C621.236 618.679 622.446 619.031 623.4 619.735C624.368 620.424 625.02 621.414 625.358 622.705H622.652C622.432 622.104 622.08 621.634 621.596 621.297C621.112 620.96 620.503 620.791 619.77 620.791C618.743 620.791 617.922 621.158 617.306 621.891C616.704 622.61 616.404 623.622 616.404 624.927C616.404 626.232 616.704 627.252 617.306 627.985C617.922 628.718 618.743 629.085 619.77 629.085C621.222 629.085 622.182 628.447 622.652 627.171H625.358C625.006 628.403 624.346 629.386 623.378 630.119C622.41 630.838 621.207 631.197 619.77 631.197C618.611 631.197 617.584 630.94 616.69 630.427C615.795 629.899 615.091 629.166 614.578 628.227C614.079 627.274 613.83 626.174 613.83 624.927ZM638.835 618.877V630.999H636.327V629.569C635.931 630.068 635.41 630.464 634.765 630.757C634.134 631.036 633.46 631.175 632.741 631.175C631.788 631.175 630.93 630.977 630.167 630.581C629.419 630.185 628.825 629.598 628.385 628.821C627.96 628.044 627.747 627.105 627.747 626.005V618.877H630.233V625.631C630.233 626.716 630.504 627.552 631.047 628.139C631.59 628.711 632.33 628.997 633.269 628.997C634.208 628.997 634.948 628.711 635.491 628.139C636.048 627.552 636.327 626.716 636.327 625.631V618.877H638.835ZM644.652 620.637C645.019 620.021 645.503 619.544 646.104 619.207C646.72 618.855 647.446 618.679 648.282 618.679V621.275H647.644C646.661 621.275 645.913 621.524 645.4 622.023C644.901 622.522 644.652 623.387 644.652 624.619V630.999H642.144V618.877H644.652V620.637ZM661.698 624.641C661.698 625.096 661.668 625.506 661.61 625.873H652.348C652.421 626.841 652.78 627.618 653.426 628.205C654.071 628.792 654.863 629.085 655.802 629.085C657.151 629.085 658.104 628.52 658.662 627.391H661.367C661.001 628.506 660.334 629.422 659.366 630.141C658.412 630.845 657.224 631.197 655.802 631.197C654.643 631.197 653.602 630.94 652.678 630.427C651.768 629.899 651.05 629.166 650.522 628.227C650.008 627.274 649.752 626.174 649.752 624.927C649.752 623.68 650.001 622.588 650.5 621.649C651.013 620.696 651.724 619.962 652.634 619.449C653.558 618.936 654.614 618.679 655.802 618.679C656.946 618.679 657.965 618.928 658.86 619.427C659.754 619.926 660.451 620.63 660.95 621.539C661.448 622.434 661.698 623.468 661.698 624.641ZM659.08 623.849C659.065 622.925 658.735 622.184 658.09 621.627C657.444 621.07 656.645 620.791 655.692 620.791C654.826 620.791 654.086 621.07 653.47 621.627C652.854 622.17 652.487 622.91 652.37 623.849H659.08Z" fill="#BDF3FF"/>
<g clip-path="url(#clip4_1_355)">
<path d="M189.48 132.385V212.385L209.927 196.098V143.498L189.48 132.385ZM179.97 194.912L163.507 202.102V139.338L179.97 144.212V194.912ZM141.397 193.068L153.997 189.738V149.678L141.457 147.658L141.397 193.068Z" fill="url(#paint8_linear_1_355)"/>
</g>
<g clip-path="url(#clip5_1_355)">
<path d="M314.52 461.999H262.798C260.419 461.999 258.387 461.162 256.704 459.488C255.02 457.814 254.178 455.794 254.178 453.428V419.142C254.178 417.981 254.593 416.977 255.424 416.128C256.255 415.28 257.276 414.856 258.488 414.856H290.814C290.814 414.544 291.072 413.919 291.589 412.981C292.105 412.044 292.61 411.173 293.104 410.37L293.912 409.231C294.226 408.383 294.855 407.68 295.798 407.122C296.741 406.564 297.728 406.285 298.761 406.285H314.924C316.002 406.285 317.012 406.564 317.955 407.122C318.898 407.68 319.526 408.383 319.84 409.231C322.04 412.088 323.14 413.963 323.14 414.856V453.428C323.14 455.794 322.298 457.814 320.615 459.488C318.931 461.162 316.9 461.999 314.52 461.999ZM297.279 431.999C297.279 429.633 296.438 427.613 294.754 425.939C293.07 424.265 291.039 423.428 288.659 423.428C286.28 423.428 284.248 424.265 282.564 425.939C280.881 427.613 280.039 429.633 280.039 431.999C280.039 433.74 280.544 435.336 281.554 436.787C282.564 438.238 283.878 439.276 285.494 439.901L280.039 453.428H297.279L291.824 439.901C293.441 439.276 294.754 438.238 295.764 436.787C296.774 435.336 297.279 433.74 297.279 431.999ZM257.276 404.945C257.59 404.097 258.219 403.394 259.162 402.836C260.105 402.278 261.092 401.999 262.125 401.999H278.288C279.366 401.999 280.376 402.278 281.319 402.836C282.261 403.394 282.912 404.097 283.272 404.945L286.504 410.57H254.178L257.276 404.945Z" fill="url(#paint9_linear_1_355)"/>
</g>
<path d="M514.327 259.966L538.653 267.566C539.332 267.778 539.925 268.201 540.346 268.774C540.767 269.346 540.994 270.039 540.993 270.749V276.633H547.66C548.544 276.633 549.392 276.984 550.017 277.609C550.642 278.234 550.993 279.082 550.993 279.966V286.633H507.66V279.966C507.66 279.082 508.011 278.234 508.636 277.609C509.262 276.984 510.109 276.633 510.993 276.633H534.327V273.199L514.327 266.946L494.327 273.199V297.879C494.326 299.92 494.794 301.934 495.695 303.765C496.595 305.597 497.904 307.197 499.52 308.443L500.15 308.896L514.327 318.566L526.933 309.966H510.993C510.109 309.966 509.262 309.615 508.636 308.99C508.011 308.365 507.66 307.517 507.66 306.633V293.299H550.993V306.633C550.993 307.517 550.642 308.365 550.017 308.99C549.392 309.615 548.544 309.966 547.66 309.966L536.927 309.969C535.637 311.669 534.07 313.169 532.26 314.403L514.327 326.633L496.393 314.406C493.702 312.571 491.499 310.106 489.977 307.226C488.455 304.346 487.66 301.137 487.66 297.879V270.749C487.661 270.039 487.888 269.348 488.309 268.776C488.73 268.204 489.322 267.781 490 267.569L514.327 259.966Z" fill="url(#paint10_linear_1_355)"/>
<g clip-path="url(#clip6_1_355)">
<path d="M618.66 530.999H634.66V528.332C634.66 526.211 633.817 524.176 632.317 522.675C630.817 521.175 628.782 520.332 626.66 520.332C624.538 520.332 622.504 521.175 621.003 522.675C619.503 524.176 618.66 526.211 618.66 528.332V530.999Z" fill="url(#paint11_linear_1_355)"/>
<path d="M614.66 541.666H638.66V538.999H614.66V541.666Z" fill="url(#paint12_linear_1_355)"/>
<path d="M638.66 548.332H614.66V545.666H638.66V548.332Z" fill="url(#paint13_linear_1_355)"/>
<path d="M614.66 554.999H638.66V552.332H614.66V554.999Z" fill="url(#paint14_linear_1_355)"/>
<path fill-rule="evenodd" clip-rule="evenodd" d="M594.66 506.999H658.66V570.999H594.66V506.999ZM609.327 530.999C608.62 530.999 607.941 531.28 607.441 531.78C606.941 532.28 606.66 532.958 606.66 533.666V560.332C606.66 561.04 606.941 561.718 607.441 562.218C607.941 562.718 608.62 562.999 609.327 562.999H643.993C644.701 562.999 645.379 562.718 645.879 562.218C646.379 561.718 646.66 561.04 646.66 560.332V533.666C646.66 532.958 646.379 532.28 645.879 531.78C645.379 531.28 644.701 530.999 643.993 530.999H639.993V528.332C639.993 520.968 634.024 514.999 626.66 514.999C619.296 514.999 613.327 520.968 613.327 528.332V530.999H609.327Z" fill="url(#paint15_linear_1_355)"/>
</g>
<defs>
<filter id="filter0_f_1_355" x="-9.83987" y="-0.000976562" width="260" height="237" filterUnits="userSpaceOnUse" color-interpolation-filters="sRGB">
<feFlood flood-opacity="0" result="BackgroundImageFix"/>
<feBlend mode="normal" in="SourceGraphic" in2="BackgroundImageFix" result="shape"/>
<feGaussianBlur stdDeviation="30" result="effect1_foregroundBlur_1_355"/>
</filter>
<filter id="filter1_b_1_355" x="-32.8399" y="31.999" width="417" height="329" filterUnits="userSpaceOnUse" color-interpolation-filters="sRGB">
<feFlood flood-opacity="0" result="BackgroundImageFix"/>
<feGaussianBlur in="BackgroundImage" stdDeviation="25"/>
<feComposite in2="SourceAlpha" operator="in" result="effect1_backgroundBlur_1_355"/>
<feBlend mode="normal" in="SourceGraphic" in2="effect1_backgroundBlur_1_355" result="shape"/>
</filter>
<filter id="filter2_f_1_355" x="442.66" y="124.299" width="250" height="237" filterUnits="userSpaceOnUse" color-interpolation-filters="sRGB">
<feFlood flood-opacity="0" result="BackgroundImageFix"/>
<feBlend mode="normal" in="SourceGraphic" in2="BackgroundImageFix" result="shape"/>
<feGaussianBlur stdDeviation="30" result="effect1_foregroundBlur_1_355"/>
</filter>
<filter id="filter3_f_1_355" x="122.16" y="274.999" width="231" height="217" filterUnits="userSpaceOnUse" color-interpolation-filters="sRGB">
<feFlood flood-opacity="0" result="BackgroundImageFix"/>
<feBlend mode="normal" in="SourceGraphic" in2="BackgroundImageFix" result="shape"/>
<feGaussianBlur stdDeviation="30" result="effect1_foregroundBlur_1_355"/>
</filter>
<filter id="filter4_f_1_355" x="571.66" y="389.999" width="217" height="217" filterUnits="userSpaceOnUse" color-interpolation-filters="sRGB">
<feFlood flood-opacity="0" result="BackgroundImageFix"/>
<feBlend mode="normal" in="SourceGraphic" in2="BackgroundImageFix" result="shape"/>
<feGaussianBlur stdDeviation="30" result="effect1_foregroundBlur_1_355"/>
</filter>
<filter id="filter5_b_1_355" x="80.1601" y="287.999" width="417" height="329" filterUnits="userSpaceOnUse" color-interpolation-filters="sRGB">
<feFlood flood-opacity="0" result="BackgroundImageFix"/>
<feGaussianBlur in="BackgroundImage" stdDeviation="25"/>
<feComposite in2="SourceAlpha" operator="in" result="effect1_backgroundBlur_1_355"/>
<feBlend mode="normal" in="SourceGraphic" in2="effect1_backgroundBlur_1_355" result="shape"/>
</filter>
<filter id="filter6_b_1_355" x="308.66" y="147.299" width="418" height="329" filterUnits="userSpaceOnUse" color-interpolation-filters="sRGB">
<feFlood flood-opacity="0" result="BackgroundImageFix"/>
<feGaussianBlur in="BackgroundImage" stdDeviation="25"/>
<feComposite in2="SourceAlpha" operator="in" result="effect1_backgroundBlur_1_355"/>
<feBlend mode="normal" in="SourceGraphic" in2="effect1_backgroundBlur_1_355" result="shape"/>
</filter>
<filter id="filter7_b_1_355" x="420.66" y="400.999" width="418" height="329" filterUnits="userSpaceOnUse" color-interpolation-filters="sRGB">
<feFlood flood-opacity="0" result="BackgroundImageFix"/>
<feGaussianBlur in="BackgroundImage" stdDeviation="25"/>
<feComposite in2="SourceAlpha" operator="in" result="effect1_backgroundBlur_1_355"/>
<feBlend mode="normal" in="SourceGraphic" in2="effect1_backgroundBlur_1_355" result="shape"/>
</filter>
<linearGradient id="paint0_linear_1_355" x1="175.66" y1="12.6455" x2="175.66" y2="413.86" gradientUnits="userSpaceOnUse">
<stop stop-color="white" stop-opacity="0.03"/>
<stop offset="1" stop-color="white" stop-opacity="0"/>
</linearGradient>
<linearGradient id="paint1_linear_1_355" x1="368.082" y1="310.999" x2="41.1816" y2="-3.3252" gradientUnits="userSpaceOnUse">
<stop stop-color="#F5FBF2" stop-opacity="0.44"/>
<stop offset="1" stop-color="#F5FBF2" stop-opacity="0"/>
</linearGradient>
<linearGradient id="paint2_linear_1_355" x1="288.66" y1="268.645" x2="288.66" y2="669.86" gradientUnits="userSpaceOnUse">
<stop stop-color="white" stop-opacity="0.03"/>
<stop offset="1" stop-color="white" stop-opacity="0"/>
</linearGradient>
<linearGradient id="paint3_linear_1_355" x1="481.082" y1="566.999" x2="154.182" y2="252.675" gradientUnits="userSpaceOnUse">
<stop stop-color="#F5FBF2" stop-opacity="0.44"/>
<stop offset="1" stop-color="#F5FBF2" stop-opacity="0"/>
</linearGradient>
<linearGradient id="paint4_linear_1_355" x1="517.66" y1="127.946" x2="517.66" y2="529.16" gradientUnits="userSpaceOnUse">
<stop stop-color="white" stop-opacity="0.03"/>
<stop offset="1" stop-color="white" stop-opacity="0"/>
</linearGradient>
<linearGradient id="paint5_linear_1_355" x1="710.689" y1="426.299" x2="383.75" y2="110.946" gradientUnits="userSpaceOnUse">
<stop stop-color="#F5FBF2" stop-opacity="0.44"/>
<stop offset="1" stop-color="#F5FBF2" stop-opacity="0"/>
</linearGradient>
<linearGradient id="paint6_linear_1_355" x1="629.66" y1="381.645" x2="629.66" y2="782.86" gradientUnits="userSpaceOnUse">
<stop stop-color="white" stop-opacity="0.03"/>
<stop offset="1" stop-color="white" stop-opacity="0"/>
</linearGradient>
<linearGradient id="paint7_linear_1_355" x1="822.689" y1="679.999" x2="495.75" y2="364.646" gradientUnits="userSpaceOnUse">
<stop stop-color="#F5FBF2" stop-opacity="0.44"/>
<stop offset="1" stop-color="#F5FBF2" stop-opacity="0"/>
</linearGradient>
<linearGradient id="paint8_linear_1_355" x1="175.662" y1="132.385" x2="269.063" y2="155.029" gradientUnits="userSpaceOnUse">
<stop stop-color="#F7BC51"/>
<stop offset="0.609375" stop-color="#60E7CE" stop-opacity="0.5"/>
<stop offset="1" stop-color="#060ED0" stop-opacity="0.28"/>
</linearGradient>
<linearGradient id="paint9_linear_1_355" x1="288.659" y1="401.999" x2="378.651" y2="431.273" gradientUnits="userSpaceOnUse">
<stop stop-color="#05D2FF"/>
<stop offset="0.609375" stop-color="#253FE0" stop-opacity="0.619792"/>
<stop offset="1" stop-color="#060ED0" stop-opacity="0.28"/>
</linearGradient>
<linearGradient id="paint10_linear_1_355" x1="519.327" y1="259.966" x2="604.557" y2="282.882" gradientUnits="userSpaceOnUse">
<stop stop-color="#FD5A14"/>
<stop offset="0.609375" stop-color="#FFF06B" stop-opacity="0.59"/>
<stop offset="1" stop-color="#060ED0" stop-opacity="0.28"/>
</linearGradient>
<linearGradient id="paint11_linear_1_355" x1="626.66" y1="520.332" x2="646.223" y2="528.637" gradientUnits="userSpaceOnUse">
<stop stop-color="#00DD9C"/>
<stop offset="0.609375" stop-color="#253FE0" stop-opacity="0.619792"/>
<stop offset="1" stop-color="#060ED0" stop-opacity="0.28"/>
</linearGradient>
<linearGradient id="paint12_linear_1_355" x1="626.66" y1="538.999" x2="631.285" y2="550.78" gradientUnits="userSpaceOnUse">
<stop stop-color="#00DD9C"/>
<stop offset="0.609375" stop-color="#253FE0" stop-opacity="0.619792"/>
<stop offset="1" stop-color="#060ED0" stop-opacity="0.28"/>
</linearGradient>
<linearGradient id="paint13_linear_1_355" x1="626.66" y1="545.666" x2="631.285" y2="557.446" gradientUnits="userSpaceOnUse">
<stop stop-color="#00DD9C"/>
<stop offset="0.609375" stop-color="#253FE0" stop-opacity="0.619792"/>
<stop offset="1" stop-color="#060ED0" stop-opacity="0.28"/>
</linearGradient>
<linearGradient id="paint14_linear_1_355" x1="626.66" y1="552.332" x2="631.285" y2="564.113" gradientUnits="userSpaceOnUse">
<stop stop-color="#00DD9C"/>
<stop offset="0.609375" stop-color="#253FE0" stop-opacity="0.619792"/>
<stop offset="1" stop-color="#060ED0" stop-opacity="0.28"/>
</linearGradient>
<linearGradient id="paint15_linear_1_355" x1="626.66" y1="506.999" x2="712.165" y2="531.199" gradientUnits="userSpaceOnUse">
<stop stop-color="#00DD9C"/>
<stop offset="0.609375" stop-color="#253FE0" stop-opacity="0.619792"/>
<stop offset="1" stop-color="#060ED0" stop-opacity="0.28"/>
</linearGradient>
<clipPath id="clip0_1_355">
<rect width="140" height="117" fill="white" transform="translate(50.1601 59.999)"/>
</clipPath>
<clipPath id="clip1_1_355">
<rect width="130" height="117" fill="white" transform="translate(502.66 184.299)"/>
</clipPath>
<clipPath id="clip2_1_355">
<rect width="111" height="97" fill="white" transform="translate(182.16 334.999)"/>
</clipPath>
<clipPath id="clip3_1_355">
<rect width="97" height="97" fill="white" transform="translate(631.66 449.999)"/>
</clipPath>
<clipPath id="clip4_1_355">
<rect width="80" height="80" fill="white" transform="translate(135.66 132.385)"/>
</clipPath>
<clipPath id="clip5_1_355">
<rect width="69.0411" height="60" fill="white" transform="translate(254.139 401.999)"/>
</clipPath>
<clipPath id="clip6_1_355">
<rect width="64" height="64" fill="white" transform="translate(594.66 506.999)"/>
</clipPath>
</defs>
</svg>
